<svg width="200" height="200" viewBox="0 0 200 200" fill="none" xmlns="http://www.w3.org/2000/svg">
<g clip-path="url(#clip0_302_29)">
<path fill-rule="evenodd" clip-rule="evenodd" d="M100 150.625C72.0856 150.625 49.375 127.914 49.375 100C49.375 72.0856 72.0856 49.375 100 49.375C127.914 49.375 150.625 72.0856 150.625 100C150.625 127.914 127.914 150.625 100 150.625ZM125.781 95.3079H104.688V74.2142H95.3125V95.3079H74.2188V104.683H95.3125V125.777H104.688V104.683H125.781V95.3079Z" fill="#6D6D6E" fill-opacity="0.7"/>
<path fill-rule="evenodd" clip-rule="evenodd" d="M100 40C116.026 40 131.094 46.2411 142.426 57.5735C153.759 68.9059 160 83.9737 160 100C160 116.026 153.759 131.094 142.426 142.426C131.094 153.759 116.026 160 100 160C83.9737 160 68.9059 153.759 57.5735 142.426C46.2411 131.094 40 116.026 40 100C40 83.9737 46.2411 68.9059 57.5735 57.5735C68.9059 46.2411 83.9737 40 100 40ZM49.375 100C49.375 127.914 72.0856 150.625 100 150.625C127.914 150.625 150.625 127.914 150.625 100C150.625 72.0856 127.914 49.375 100 49.375C72.0856 49.375 49.375 72.0856 49.375 100Z" fill="#6D6D6E" fill-opacity="0.7"/>
</g>
<defs>
<clipPath id="clip0_302_29">
<rect width="120" height="120" fill="white" transform="translate(40 40)"/>
</clipPath>
</defs>
</svg>
