<svg width="15" height="15" viewBox="0 0 15 15" fill="none" xmlns="http://www.w3.org/2000/svg">
<path d="M5.24415 11H6.46703V6.16546H5.2408L4.01123 7.00304V8.06175L5.2207 7.24427H5.24415V11ZM9.45846 11.1206C10.7215 11.1206 11.5022 10.149 11.5022 8.571C11.5022 6.98294 10.7115 6.04149 9.45846 6.04149C8.20209 6.04149 7.40806 6.98629 7.40806 8.57435C7.40806 10.1557 8.19204 11.1206 9.45846 11.1206ZM9.45846 10.1624C8.97602 10.1624 8.65773 9.61631 8.65773 8.571C8.65773 7.5324 8.97937 6.99969 9.45846 6.99969C9.93756 6.99969 10.2525 7.52905 10.2525 8.57435C10.2525 9.61966 9.93756 10.1624 9.45846 10.1624Z" fill="white"/>
<path d="M4.9339 5.5V3.05814H5.78121V2.42799H3.30742V3.05814H4.15472V5.5H4.9339ZM7.36162 2.37477C6.43129 2.37477 5.84371 2.98576 5.84371 3.96506C5.84371 4.94435 6.42916 5.55322 7.36162 5.55322C8.29195 5.55322 8.8774 4.94435 8.8774 3.96506C8.8774 2.98576 8.29195 2.37477 7.36162 2.37477ZM7.36162 3.00918C7.79805 3.00918 8.08332 3.37961 8.08332 3.96506C8.08332 4.54838 7.79805 4.91881 7.36162 4.91881C6.92307 4.91881 6.63992 4.54838 6.63992 3.96506C6.63992 3.37961 6.9252 3.00918 7.36162 3.00918ZM9.23795 2.42799V5.5H10.0193V4.59947H10.5217C11.2051 4.59947 11.6756 4.17156 11.6756 3.51586C11.6756 2.8559 11.2285 2.42799 10.5685 2.42799H9.23795ZM10.0193 3.02621H10.362C10.6899 3.02621 10.8857 3.19865 10.8857 3.51799C10.8857 3.83945 10.6899 4.01189 10.3578 4.01189H10.0193V3.02621Z" fill="white"/>
<rect x="0.5" y="0.5" width="14" height="14" stroke="white"/>
</svg>
