<svg width="111" height="30" viewBox="0 0 111 30" fill="none" xmlns="http://www.w3.org/2000/svg">
<g clip-path="url(#clip0_302_285)">
<path d="M15.2628 28.0648C13.5931 28.358 11.8939 28.4459 10.1362 28.6801L4.77506 12.9779V29.354C3.10529 29.5297 1.58197 29.764 0 29.9984V0H4.45301L10.5463 17.0208V0H15.2628V28.0648ZM24.4909 10.9857C26.3073 10.9857 29.0903 10.8978 30.7601 10.8978V15.585C28.6801 15.585 26.2487 15.585 24.4909 15.6729V22.6453C27.2448 22.4696 29.9985 22.235 32.7814 22.1471V26.6583L19.8035 27.6839V0H32.7814V4.68726H24.4909V10.9857ZM50.2121 4.68737H45.3491V26.2487C43.7672 26.2487 42.1852 26.2487 40.6621 26.3071V4.68737H35.7991V0H50.2123L50.2121 4.68737ZM57.8288 10.6636H64.2446V15.3507H57.8288V25.9851H53.2292V0H66.3246V4.68726H57.8288V10.6636ZM73.9413 21.8836C76.6072 21.942 79.3022 22.1474 81.9097 22.2937V26.9224C77.7205 26.6585 73.5312 26.3952 69.2541 26.3071V0H73.9413V21.8836ZM85.8645 27.2446C87.3585 27.3327 88.9405 27.4206 90.4638 27.5961V0H85.8645V27.2446ZM111 0L105.053 14.2669L111 29.9984C109.242 29.764 107.484 29.4418 105.727 29.1488L102.358 20.4775L98.9306 28.4459C97.2311 28.1527 95.5906 28.0648 93.8918 27.8304L99.9266 14.0909L94.4775 0H99.5161L102.592 7.88046L105.873 0H111V0Z" fill="#B9090B"/>
</g>
<defs>
<clipPath id="clip0_302_285">
<rect width="111" height="29.9984" fill="white"/>
</clipPath>
</defs>
</svg>
